<svg xmlns="http://www.w3.org/2000/svg" viewBox="0 0 500 500" role="img" aria-labelledby="favTitle favDesc">
  <title id="favTitle">polyglotSQL icon</title>
  <desc id="favDesc">Hexagon with a database cylinder and two circling arrows.</desc>
  <defs>
    <linearGradient id="fHexFill" x1="0" y1="0" x2="1" y2="1">
      <stop offset="0" stop-color="#101b33"/>
      <stop offset="1" stop-color="#0a1122"/>
    </linearGradient>
    <linearGradient id="fHexRim" x1="0" y1="0" x2="1" y2="1">
      <stop offset="0" stop-color="#2dd4bf"/>
      <stop offset="0.5" stop-color="#3b82f6"/>
      <stop offset="1" stop-color="#8b5cf6"/>
    </linearGradient>
    <linearGradient id="fDbFill" x1="0" y1="0" x2="0" y2="1">
      <stop offset="0" stop-color="#3b82f6"/>
      <stop offset="1" stop-color="#1d4ed8"/>
    </linearGradient>
    <linearGradient id="fArrowTop" x1="0" y1="0" x2="1" y2="0">
      <stop offset="0" stop-color="#2dd4bf"/>
      <stop offset="1" stop-color="#3b82f6"/>
    </linearGradient>
    <linearGradient id="fArrowBottom" x1="1" y1="0" x2="0" y2="0">
      <stop offset="0" stop-color="#8b5cf6"/>
      <stop offset="1" stop-color="#3b82f6"/>
    </linearGradient>
  </defs>
  <polygon points="250,14 454.4,132 454.4,368 250,486 45.6,368 45.6,132"
           fill="url(#fHexFill)" stroke="url(#fHexRim)" stroke-width="22"
           stroke-linejoin="round"/>
  <g stroke-linecap="round" fill="none">
    <path d="M 109 198.7 A 150 150 0 0 1 391 198.7" stroke="url(#fArrowTop)" stroke-width="24"/>
    <path d="M 391 301.3 A 150 150 0 0 1 109 301.3" stroke="url(#fArrowBottom)" stroke-width="24"/>
  </g>
  <polygon points="-10,-25 34,0 -10,25" fill="#3b82f6" transform="translate(391,198.7) rotate(70)"/>
  <polygon points="-10,-25 34,0 -10,25" fill="#3b82f6" transform="translate(109,301.3) rotate(250)"/>
  <g>
    <path d="M 172 200 v 100 a 78 28 0 0 0 156 0 v -100 z" fill="url(#fDbFill)"/>
    <ellipse cx="250" cy="200" rx="78" ry="28" fill="#60a5fa"/>
    <path d="M 172 234 a 78 28 0 0 0 156 0" fill="none" stroke="#0a1122" stroke-width="9" stroke-linecap="round"/>
    <path d="M 172 268 a 78 28 0 0 0 156 0" fill="none" stroke="#0a1122" stroke-width="9" stroke-linecap="round"/>
  </g>
</svg>
